Coordinates
version=1
nRows=16
nColumns=40
inDegrees=yes

Units are S.I. units (second, meters, Newtons, ...)
If the header above contains a line with 'inDegrees', this indicates whether rotational values are in degrees (yes) or radians (no).

endheader
time	pelvis_tilt	pelvis_list	pelvis_rotation	pelvis_tx	pelvis_ty	pelvis_tz	hip_flexion_r	hip_adduction_r	hip_rotation_r	knee_angle_r	knee_angle_r_beta	ankle_angle_r	subtalar_angle_r	mtp_angle_r	hip_flexion_l	hip_adduction_l	hip_rotation_l	knee_angle_l	knee_angle_l_beta	ankle_angle_l	subtalar_angle_l	mtp_angle_l	lumbar_extension	lumbar_bending	lumbar_rotation	arm_flex_r	arm_add_r	arm_rot_r	elbow_flex_r	pro_sup_r	wrist_flex_r	wrist_dev_r	arm_flex_l	arm_add_l	arm_rot_l	elbow_flex_l	pro_sup_l	wrist_flex_l	wrist_dev_l
      3.00500000	    -37.39326561	      5.90004212	     -4.92489686	     -0.33384708	      0.63193335	     -0.90371695	    105.87539757	    -19.46796606	     11.61008998	    101.47702782	      1.77110825	     32.97911180	      0.00000000	      0.00000000	    102.12562020	    -29.76048320	     -0.81176292	    101.95648560	      1.77947637	     38.44941218	      0.00000000	      0.00000000	    -15.10538514	     -6.15303881	      1.80713241	     16.61567023	    -52.84094742	     89.24728451	     87.83510075	     88.55734053	      0.00000000	      0.00000000	     16.84100598	    -57.41484699	     89.31195524	     93.93652549	     88.33281729	      0.00000000	      0.00000000
      3.01000000	    -37.40515091	      5.84188500	     -4.91255788	     -0.33378882	      0.63194556	     -0.90368104	    105.85501026	    -19.48276112	     11.54053179	    101.49456292	      1.77141430	     32.89507806	      0.00000000	      0.00000000	    102.19142240	    -29.71433495	     -0.70685424	    101.94924614	      1.77935002	     38.61499270	      0.00000000	      0.00000000	    -15.08841664	     -6.08904965	      1.81920392	     16.59706834	    -52.85009482	     89.25168101	     87.78592366	     88.56363342	      0.00000000	      0.00000000	     16.82122594	    -57.38195452	     89.31907129	     93.83131611	     88.21224446	      0.00000000	      0.00000000
      3.01500000	    -37.29953107	      5.78975527	     -4.78708807	     -0.33358084	      0.63234154	     -0.90397774	    105.68136795	    -19.65153395	     11.52596516	    101.47188681	      1.77101852	     33.10228204	      0.00000000	      0.00000000	    102.04681761	    -29.55024713	     -0.70478378	    101.90958951	      1.77865788	     38.55366320	      0.00000000	      0.00000000	    -15.25384831	     -5.99718053	      1.66190796	     16.74119865	    -52.90508340	     89.30892228	     87.94560549	     88.41257689	      0.00000000	      0.00000000	     16.84824097	    -57.41401372	     89.33260793	     93.98942714	     87.86703532	      0.00000000	      0.00000000
      3.02000000	    -37.36760319	      5.81601964	     -4.85682715	     -0.33358433	      0.63233191	     -0.90383532	    105.77237351	    -19.57910559	     11.50508735	    101.46740433	      1.77094029	     32.86490020	      0.00000000	      0.00000000	    102.08526855	    -29.61443997	     -0.70547804	    101.89658574	      1.77843092	     38.61152267	      0.00000000	      0.00000000	    -15.15769131	     -6.04281700	      1.77999810	     16.62860709	    -52.87479225	     89.25492258	     87.75022114	     88.56003437	      0.00000000	      0.00000000	     16.84247435	    -57.35589833	     89.32666744	     93.82170168	     88.16970208	      0.00000000	      0.00000000
      3.02500000	    -37.33848344	      5.78065393	     -4.82467605	     -0.33348011	      0.63252937	     -0.90386091	    105.69732948	    -19.58070076	     11.52261463	    101.46165081	      1.77083987	     32.83418007	      0.00000000	      0.00000000	    102.06815759	    -29.57358547	     -0.67578499	    101.90300277	      1.77854292	     38.36711097	      0.00000000	      0.00000000	    -15.20399184	     -5.99933583	      1.74353106	     16.66425086	    -52.84762273	     89.27121511	     87.72983545	     88.55170922	      0.00000000	      0.00000000	     16.88915103	    -57.32505016	     89.33434768	     93.79194749	     88.09618951	      0.00000000	      0.00000000
      3.03000000	    -37.41215977	      5.80907102	     -4.87421380	     -0.33353519	      0.63246037	     -0.90373569	    105.77379153	    -19.50050678	     11.52546004	    101.43431561	      1.77036278	     32.82667496	      0.00000000	      0.00000000	    102.11753429	    -29.62629548	     -0.69452203	    101.88189451	      1.77817451	     38.43576694	      0.00000000	      0.00000000	    -15.11421197	     -6.04149946	      1.80045986	     16.62685695	    -52.83447093	     89.25544830	     87.75669227	     88.55735410	      0.00000000	      0.00000000	     16.84717493	    -57.33182713	     89.32796493	     93.80063488	     88.19410273	      0.00000000	      0.00000000
      3.03500000	    -37.41743827	      5.77155830	     -4.86359908	     -0.33350992	      0.63254524	     -0.90369991	    105.73725144	    -19.52162098	     11.46331874	    101.42447417	      1.77019102	     32.96137405	      0.00000000	      0.00000000	    102.12998213	    -29.62326072	     -0.65568935	    101.87570082	      1.77806641	     38.46950192	      0.00000000	      0.00000000	    -15.12108232	     -5.99930892	      1.79410714	     16.63052656	    -52.86771660	     89.24736562	     87.81854160	     88.58791657	      0.00000000	      0.00000000	     16.85311953	    -57.34544528	     89.31527033	     93.85232264	     88.22463290	      0.00000000	      0.00000000
      3.04000000	    -37.42464145	      5.77606007	     -4.84439901	     -0.33341288	      0.63264365	     -0.90377391	    105.73645519	    -19.54917636	     11.46711433	    101.40643375	      1.76987615	     32.87109018	      0.00000000	      0.00000000	    102.11916991	    -29.56876116	     -0.66048196	    101.84527959	      1.77753546	     38.47764666	      0.00000000	      0.00000000	    -15.10313436	     -5.99260839	      1.79140819	     16.63267301	    -52.83746474	     89.25685013	     87.70141238	     88.53475957	      0.00000000	      0.00000000	     16.89302721	    -57.29270960	     89.34167741	     93.75810388	     88.08780018	      0.00000000	      0.00000000
      3.04500000	    -37.44869427	      5.78505987	     -4.88263624	     -0.33343068	      0.63259756	     -0.90363717	    105.76479434	    -19.49209210	     11.46663775	    101.41162342	      1.76996673	     32.88631246	      0.00000000	      0.00000000	    102.14805180	    -29.65056281	     -0.66390178	    101.86515230	      1.77788230	     38.40355469	      0.00000000	      0.00000000	    -15.07880596	     -6.01752223	      1.80999368	     16.62979048	    -52.86955771	     89.25250167	     87.79872778	     88.60307879	      0.00000000	      0.00000000	     16.84457567	    -57.34306486	     89.32762039	     93.79977075	     88.16858034	      0.00000000	      0.00000000
      3.05000000	    -37.40812068	      5.85658394	     -4.74849204	     -0.33325350	      0.63275788	     -0.90406636	    105.76312125	    -19.65641580	     11.59849109	    101.41619292	      1.77004648	     32.97061502	      0.00000000	      0.00000000	    102.00149546	    -29.44257502	     -0.79277887	    101.82333327	      1.77715242	     38.44681313	      0.00000000	      0.00000000	    -15.14299747	     -6.05245382	      1.64769410	     16.65210473	    -52.87826037	     89.24766617	     87.83990609	     88.56197239	      0.00000000	      0.00000000	     16.84258674	    -57.36057128	     89.30932185	     93.84065294	     88.31603734	      0.00000000	      0.00000000
      3.05500000	    -37.43865130	      5.78178732	     -4.80698483	     -0.33327860	      0.63280609	     -0.90383027	    105.72278120	    -19.58013483	     11.48558035	    101.39129426	      1.76961192	     32.97484872	      0.00000000	      0.00000000	    102.08716731	    -29.52571463	     -0.68127886	    101.83037985	      1.77727541	     38.44912484	      0.00000000	      0.00000000	    -15.10710803	     -5.99038578	      1.73198252	     16.63385261	    -52.87863605	     89.24640511	     87.81694488	     88.55309587	      0.00000000	      0.00000000	     16.82357726	    -57.35054490	     89.31620950	     93.88520310	     88.30399820	      0.00000000	      0.00000000
      3.06000000	    -37.41313457	      5.79528067	     -4.88373087	     -0.33316818	      0.63293954	     -0.90361987	    105.68400013	    -19.49590858	     11.47107492	    101.38315118	      1.76946979	     32.93455559	      0.00000000	      0.00000000	    102.04685345	    -29.60350866	     -0.67776993	    101.82034026	      1.77710018	     38.42319571	      0.00000000	      0.00000000	    -15.12159054	     -6.02877805	      1.80666860	     16.64539105	    -52.85963700	     89.25099396	     87.77777337	     88.57713662	      0.00000000	      0.00000000	     16.84986676	    -57.33404839	     89.32015037	     93.79116757	     88.21952530	      0.00000000	      0.00000000
      3.06500000	    -37.42552624	      5.79438312	     -4.98246363	     -0.33317018	      0.63299850	     -0.90327116	    105.65665799	    -19.35752522	     11.43386345	    101.35334115	      1.76894951	     33.00563675	      0.00000000	      0.00000000	    102.05921951	    -29.76115792	     -0.66573394	    101.83092222	      1.77728487	     38.39117878	      0.00000000	      0.00000000	    -15.10937058	     -6.06867360	      1.89543645	     16.63552111	    -52.83145452	     89.24586778	     87.78892356	     88.55315305	      0.00000000	      0.00000000	     16.83197755	    -57.39290292	     89.31518948	     93.92008972	     88.31746736	      0.00000000	      0.00000000
      3.07000000	    -37.48300698	      5.78047444	     -4.95683636	     -0.33319948	      0.63297386	     -0.90337421	    105.70642365	    -19.38833987	     11.41556104	    101.33468037	      1.76862382	     32.94820059	      0.00000000	      0.00000000	    102.12696022	    -29.72208738	     -0.64702599	    101.81845342	      1.77706725	     38.36476836	      0.00000000	      0.00000000	    -15.04150448	     -6.03599721	      1.89509903	     16.62696665	    -52.84653125	     89.25222999	     87.77296991	     88.55359939	      0.00000000	      0.00000000	     16.83605819	    -57.36448096	     89.31574036	     93.88401634	     88.25383013	      0.00000000	      0.00000000
      3.07500000	    -37.52429342	      5.77981447	     -4.89615978	     -0.33314820	      0.63298064	     -0.90350681	    105.74655450	    -19.45621528	     11.42832351	    101.34254440	      1.76876107	     32.94389894	      0.00000000	      0.00000000	    102.14322960	    -29.63507987	     -0.66390763	    101.78185532	      1.77642849	     38.46175553	      0.00000000	      0.00000000	    -14.99447642	     -6.01323725	      1.84806291	     16.59071203	    -52.84071712	     89.24761966	     87.72218800	     88.55111049	      0.00000000	      0.00000000	     16.82317022	    -57.34811489	     89.31986959	     93.83928717	     88.23103823	      0.00000000	      0.00000000
      3.08000000	    -37.47962664	      5.78923393	     -4.93730663	     -0.33300785	      0.63313303	     -0.90340310	    105.69005962	    -19.42143176	     11.42261482	    101.33621455	      1.76865060	     32.89946810	      0.00000000	      0.00000000	    102.08405187	    -29.68348029	     -0.66748454	    101.79279143	      1.77661937	     38.35902623	      0.00000000	      0.00000000	    -15.04765483	     -6.03698583	      1.87508465	     16.59976225	    -52.84871372	     89.24622022	     87.76134996	     88.57174392	      0.00000000	      0.00000000	     16.84014477	    -57.37107846	     89.31836673	     93.89289318	     88.25676980	      0.00000000	      0.00000000
